<svg width="32" height="32" viewBox="0 0 32 32" fill="none" xmlns="http://www.w3.org/2000/svg">
<path d="M10.5922 5.1994L10.5877 5.2054L10.5667 5.2339C10.458 5.38428 10.356 5.53944 10.2611 5.6989C10.1821 5.82768 10.1115 5.96147 10.0498 6.0994C10.0109 6.1894 9.99887 6.2374 9.99438 6.2539V6.2599C10.0113 6.39259 10.0579 6.51974 10.1307 6.6319C10.2431 6.8314 10.3974 7.0399 10.5922 7.2994L10.6072 7.3174C10.784 7.5544 10.9967 7.8379 11.1615 8.1319C11.3293 8.4319 11.4912 8.8144 11.4912 9.2494C11.4912 9.5314 11.3938 9.8014 11.3129 9.9904C11.2249 10.1909 11.1238 10.3853 11.0102 10.5724C10.8919 10.7686 10.7655 10.9598 10.6311 11.1454L10.6042 11.1829L10.5967 11.1949L10.5937 11.1979C10.4747 11.3572 10.2973 11.4627 10.1006 11.4911C9.90395 11.5195 9.70404 11.4686 9.54489 11.3494C9.38575 11.2303 9.2804 11.0527 9.25202 10.8558C9.22364 10.6589 9.27456 10.4587 9.39357 10.2994L9.39806 10.2934L9.41904 10.2649C9.5278 10.1145 9.62978 9.95939 9.72469 9.7999C9.8048 9.67176 9.87541 9.5379 9.93594 9.3994C9.9749 9.3094 9.98689 9.2614 9.99138 9.2449C9.97579 9.11026 9.92966 8.98097 9.85654 8.8669C9.71627 8.63496 9.56164 8.41202 9.39357 8.1994L9.37858 8.1814C9.1765 7.92212 8.99133 7.65005 8.82422 7.3669C8.62015 7.029 8.50662 6.64409 8.4946 6.2494C8.4946 5.9674 8.59199 5.6974 8.67289 5.5084C8.76129 5.3014 8.87366 5.0974 8.97555 4.9264C9.09382 4.73016 9.22028 4.539 9.35461 4.3534L9.39207 4.3009C9.51108 4.14157 9.68844 4.0361 9.88513 4.00769C10.0818 3.97928 10.2817 4.03026 10.4409 4.1494C10.6 4.26855 10.7054 4.44611 10.7337 4.64303C10.7621 4.83994 10.7112 5.04007 10.5922 5.1994ZM15.087 5.1994L15.0825 5.2054L15.0616 5.2339C14.9528 5.38428 14.8508 5.53944 14.7559 5.6989C14.6769 5.82768 14.6063 5.96147 14.5447 6.0994C14.5057 6.1894 14.4937 6.2374 14.4892 6.2539V6.2599C14.5062 6.39259 14.5528 6.51974 14.6256 6.6319C14.7379 6.8314 14.8923 7.0399 15.087 7.2994L15.102 7.3174C15.2788 7.5544 15.4916 7.8379 15.6564 8.1319C15.8242 8.4319 15.986 8.8144 15.986 9.2494C15.986 9.5314 15.8886 9.8014 15.8077 9.9904C15.7198 10.1909 15.6186 10.3853 15.5051 10.5724C15.3868 10.7686 15.2603 10.9598 15.126 11.1454L15.099 11.1829L15.0915 11.1949L15.0885 11.1979C14.9695 11.3572 14.7922 11.4627 14.5955 11.4911C14.3988 11.5195 14.1989 11.4686 14.0397 11.3494C13.8806 11.2303 13.7752 11.0527 13.7469 10.8558C13.7185 10.6589 13.7694 10.4587 13.8884 10.2994L13.8929 10.2934L13.9139 10.2649C14.0226 10.1145 14.1246 9.95939 14.2195 9.7999C14.2996 9.67176 14.3702 9.5379 14.4308 9.3994C14.4697 9.3094 14.4817 9.2614 14.4862 9.2449C14.4706 9.11026 14.4245 8.98097 14.3514 8.8669C14.2111 8.63496 14.0565 8.41202 13.8884 8.1994L13.8734 8.1814C13.6713 7.92212 13.4862 7.65005 13.3191 7.3669C13.115 7.029 13.0015 6.64409 12.9894 6.2494C12.9894 5.9674 13.0868 5.6974 13.1677 5.5084C13.2561 5.3014 13.3685 5.0974 13.4704 4.9264C13.5887 4.73016 13.7151 4.539 13.8495 4.3534L13.8869 4.3009C14.0059 4.14157 14.1833 4.0361 14.38 4.00769C14.5767 3.97928 14.7766 4.03026 14.9357 4.1494C15.0949 4.26855 15.2002 4.44611 15.2286 4.64303C15.257 4.83994 15.206 5.04007 15.087 5.1994ZM19.5819 5.1994L19.5774 5.2054L19.5564 5.2339C19.4475 5.38418 19.3455 5.53934 19.2508 5.6989C19.1718 5.82771 19.1012 5.96148 19.0395 6.0994C19.0005 6.1894 18.9886 6.2374 18.9841 6.2539V6.2599C19.001 6.39259 19.0476 6.51974 19.1204 6.6319C19.2328 6.8314 19.3871 7.0399 19.5819 7.2994L19.5969 7.3174C19.7737 7.5544 19.9864 7.8379 20.1512 8.1319C20.319 8.4319 20.4808 8.8144 20.4808 9.2494C20.4808 9.5314 20.3835 9.8014 20.3025 9.9904C20.2151 10.1911 20.1139 10.3855 19.9999 10.5724C19.8822 10.7687 19.7562 10.9598 19.6223 11.1454L19.5939 11.1829L19.5864 11.1949L19.5834 11.1979C19.4644 11.3572 19.287 11.4627 19.0903 11.4911C18.8936 11.5195 18.6937 11.4686 18.5346 11.3494C18.3754 11.2303 18.2701 11.0527 18.2417 10.8558C18.2133 10.6589 18.2642 10.4587 18.3833 10.2994L18.3877 10.2934L18.4087 10.2649C18.5175 10.1145 18.6195 9.95939 18.7144 9.7999C18.7945 9.67176 18.8651 9.5379 18.9256 9.3994C18.9646 9.3094 18.9766 9.2614 18.9811 9.2449C18.9655 9.11026 18.9193 8.98097 18.8462 8.8669C18.706 8.63496 18.5513 8.41202 18.3833 8.1994L18.3683 8.1814C18.1662 7.92212 17.981 7.65005 17.8139 7.3669C17.6098 7.029 17.4963 6.64409 17.4843 6.2494C17.4843 5.9674 17.5817 5.6974 17.6626 5.5084C17.751 5.3014 17.8633 5.0974 17.9652 4.9264C18.0835 4.73016 18.21 4.539 18.3443 4.3534L18.3818 4.3009C18.5008 4.14157 18.6781 4.0361 18.8748 4.00769C19.0715 3.97928 19.2714 4.03026 19.4305 4.1494C19.5897 4.26855 19.695 4.44611 19.7234 4.64303C19.7518 4.83994 19.7009 5.04007 19.5819 5.1994Z" fill="white"/>
<path fill-rule="evenodd" clip-rule="evenodd" d="M4.74885 13C4.63675 13 4.52609 13.0253 4.42503 13.0738C4.32397 13.1224 4.23508 13.193 4.16491 13.2805C4.09474 13.3681 4.04509 13.4702 4.01961 13.5795C3.99413 13.6888 3.99347 13.8024 4.01768 13.912L6.49284 25.063C6.6776 25.8959 7.14051 26.6408 7.80516 27.1747C8.46981 27.7087 9.29646 27.9998 10.1487 28H18.8267C19.6789 27.9998 20.5055 27.7087 21.1702 27.1747C21.8348 26.6408 22.2977 25.8959 22.4825 25.063L22.6788 24.178C23.8248 24.3926 25.0094 24.153 25.9823 23.5097C26.9552 22.8664 27.6403 21.8698 27.8931 20.7303C28.1459 19.5907 27.9464 18.3975 27.337 17.4024C26.7275 16.4073 25.7556 15.6882 24.6265 15.397L24.9577 13.912C24.9819 13.8024 24.9812 13.6888 24.9557 13.5795C24.9302 13.4702 24.8806 13.3681 24.8104 13.2805C24.7403 13.193 24.6514 13.1224 24.5503 13.0738C24.4492 13.0253 24.3386 13 24.2265 13H4.74885ZM23.4774 22.75C23.3188 22.75 23.1605 22.7375 23.0039 22.7125L24.3029 16.8655C24.9959 17.0664 25.5932 17.5108 25.9853 18.117C26.3775 18.7233 26.5381 19.4507 26.4378 20.166C26.3374 20.8812 25.9828 21.5363 25.4391 22.0109C24.8953 22.4855 24.1988 22.748 23.4774 22.75Z" fill="white"/>
</svg>
